<?xml version="1.0" encoding="utf-8"?><svg version="1.1" id="Layer_1" xmlns="http://www.w3.org/2000/svg" xmlns:xlink="http://www.w3.org/1999/xlink" x="0px" y="0px" viewBox="0 0 240.52 330.92" style="enable-background:new 0 0 240.52 330.92" xml:space="preserve"><style type="text/css"><![CDATA[
	.st0{fill:url(#SVGID_1_);}
	.st1{fill:url(#SVGID_2_);}
	.st2{fill:url(#SVGID_3_);}
	.st3{fill:url(#SVGID_4_);}
	.st4{fill:url(#SVGID_5_);}
	.st5{fill:url(#SVGID_6_);}
	.st6{fill:url(#SVGID_7_);}
	.st7{fill:url(#SVGID_8_);}
	.st8{fill:url(#SVGID_9_);}
	.st9{fill:#2AC64B;}
	.st10{fill:#97CC1A;}
	.st11{fill:#666565;}
	.st12{fill:#00863F;}
	.st13{fill:#008A5A;}
	.st14{fill:#009550;}
	.st15{fill:#00983E;}
	.st16{fill:#009A37;}
	.st17{fill:#06CBF6;}
	.st18{fill:url(#SVGID_10_);}
]]></style><g><path class="st9" d="M11.81,111.67c-4.04-1.84-7.54-3.26-10.4-4.33c-0.6-4.49-1.04-8.99-1.31-13.51 c-0.22-3.72-0.08-7.39,0.36-10.99c2.43,0.4,5.87,1,10.15,1.83c-0.42,5.11-0.46,10.49,0,16.17C10.9,104.47,11.3,108.08,11.81,111.67 z M51.77,135.26c-10.22-7.5-19.82-13.31-28.16-17.77c-1.69-10.39-2.41-20.69-1.78-30.49c7.71,1.7,16.83,3.9,26.86,6.69 C48.03,106.8,49.26,120.9,51.77,135.26L51.77,135.26z M156.73,140.73c-0.1,1.13-0.23,2.28-0.35,3.43 c-13.96,7.29-27.86,17.12-40.35,30.37c-4.04,4.28-7.72,8.58-11.09,12.86c-3.78-4.78-7.81-9.62-12.09-14.48 c-1.92-2.17-3.84-4.28-5.78-6.34c-3.21-21.5-5.25-42.71-5.63-62.59C106.29,112.8,133.12,124.77,156.73,140.73z"/><path class="st13" d="M14.86,63.78c-2.09,6.34-3.61,13.3-4.25,20.89c-4.28-0.83-7.72-1.43-10.15-1.83 c0.27-2.27,0.68-4.51,1.19-6.72C4.7,72.84,9.11,68.51,14.86,63.78z"/><path class="st14" d="M63.49,36.38c-7.35,13.48-13.24,31.65-14.73,55.89c-0.02,0.47-0.05,0.95-0.07,1.42 c-10.03-2.79-19.14-4.98-26.85-6.69c0.01-0.33,0.04-0.64,0.06-0.97c0.96-12.71,4.71-24.37,10.38-34.72 C41.05,45.9,51.44,40.64,63.49,36.38z"/><path class="st15" d="M156.73,140.73c-23.61-15.96-50.44-27.93-75.29-36.75C80.96,80.3,82.8,58.53,87.7,40.49 c0.13-0.5,0.27-0.99,0.41-1.47c19.71,11.65,45.39,24.64,69.77,30.34C160.01,90.86,159.37,115.29,156.73,140.73L156.73,140.73z"/><path class="st16" d="M240.42,93.83c-0.6,10-2.03,19.9-4.25,29.8c-2.81,0.11-6.05,0.29-9.64,0.6c1.58-7.63,2.74-15.44,3.38-23.39 c2.14-26.76-6.51-47.14-16.51-61.37c2.93,0.83,5.71,1.65,8.3,2.45C232.93,56.16,241.6,74.46,240.42,93.83z M215.43,125.52 c-7.83,1.12-16.67,2.87-26,5.54c2.14-13.43,3.07-26.55,2.32-38.79c-1.7-27.91-9.26-47.76-18.15-61.7 c8.36,1.38,16.29,3.01,23.61,4.72c11.67,13.78,19.93,30.98,21.41,50.75C219.56,98.64,218.21,112.08,215.43,125.52z"/><path class="st12" d="M157.88,69.36c-24.38-5.71-50.06-18.7-69.77-30.34c1.04-3.61,2.2-6.89,3.48-9.87 c3.61-0.62,7.33-1.12,11.16-1.51c15.4-1.57,30.78-1.42,45.42-0.22c1.73,3.82,3.31,8.15,4.65,13.07 C155.2,49.29,156.87,58.98,157.88,69.36z"/><path class="st17" d="M52.63,14.42c-0.81,0.5-27,16.62-37.77,49.35C9.11,68.5,4.7,72.84,1.66,76.11 C8.78,45.23,37.2,20.01,52.63,14.42z M69.2,27.16c-1.97,2.8-3.89,5.87-5.71,9.22c-12.04,4.26-22.44,9.52-31.21,14.94 c6.71-12.31,16.14-22.8,26.77-31.12C61.57,22,65.02,24.39,69.2,27.16z"/><linearGradient id="SVGID_1_" gradientUnits="userSpaceOnUse" x1="-44827.8438" y1="22705.2246" x2="-44251.5625" y2="22687.7598" gradientTransform="matrix(0.253 0 0 -0.253 11407.7676 5761.9336)"><stop offset="0" style="stop-color:#0288F7"/><stop offset="1" style="stop-color:#2EE2BD"/></linearGradient><path class="st0" d="M221.7,41.92c-2.59-0.8-5.37-1.62-8.3-2.45c-11.82-16.82-25.53-25.06-25.53-25.06 C196.96,17.7,210.59,27.83,221.7,41.92z M197.21,35.29c-7.31-1.71-15.24-3.34-23.6-4.72c-15-23.56-33.84-30.25-34.76-30.56 C159.04,4.06,181.3,16.51,197.21,35.29z M148.17,27.42c-14.64-1.21-30.02-1.35-45.42,0.22c-3.83,0.39-7.54,0.89-11.16,1.51 C102.41,3.65,120.01,0,120.01,0h0.5C120.51,0,137.31,3.48,148.17,27.42z M101.68,0.01c-0.87,0.3-17.91,6.35-32.48,27.15 c-4.17-2.76-7.63-5.15-10.15-6.95C72.33,9.83,87.51,2.85,101.68,0.01L101.68,0.01z"/><path class="st11" d="M120.26,330.92h18.09l6.69-29.2H95.48l6.69,29.2H120.26z"/></g><linearGradient id="SVGID_2_" gradientUnits="userSpaceOnUse" x1="-44783.7422" y1="21855.7813" x2="-44925.4961" y2="22206.3262" gradientTransform="matrix(0.253 0 0 -0.253 11407.7676 5761.9336)"><stop offset="0" style="stop-color:#CB1918"/><stop offset="0.388" style="stop-color:#A2183D"/><stop offset="0.749" style="stop-color:#902869"/><stop offset="1" style="stop-color:#73358A"/></linearGradient><path class="st1" d="M51.95,200.22c3.48,7.19,6.8,13.61,9.66,18.97c4.9,9.17,9.56,16.97,14.37,24.07c1.39-4.86,3.12-9.99,5.28-15.31	c-3.73-8.55-7.47-17.74-11.03-27.31c-7.74-20.79-14.61-43.41-18.45-65.38c-10.22-7.49-19.82-13.31-28.16-17.76	C28.39,147.07,40.96,177.52,51.95,200.22L51.95,200.22z"/><linearGradient id="SVGID_3_" gradientUnits="userSpaceOnUse" x1="-44855.375" y1="21826.8242" x2="-44997.1328" y2="22177.373" gradientTransform="matrix(0.253 0 0 -0.253 11407.7676 5761.9336)"><stop offset="0" style="stop-color:#CB1918"/><stop offset="0.388" style="stop-color:#A2183D"/><stop offset="0.749" style="stop-color:#902869"/><stop offset="1" style="stop-color:#73358A"/></linearGradient><path class="st2" d="M35.61,199.85c1.97,3.44,4.02,6.9,6.14,10.39c9.93,16.28,21.4,31.32,31.61,43.54c0.3-1.48,0.65-3.01,1.04-4.56	c-4.13-5.68-8.16-11.44-11.63-16.79c-4.97-7.65-12.16-18.74-19.66-32.39c-12.84-23.41-26.55-54.36-31.31-88.36	c-4.04-1.84-7.54-3.26-10.39-4.33C5.52,137.82,17.18,167.74,35.61,199.85L35.61,199.85z"/><linearGradient id="SVGID_4_" gradientUnits="userSpaceOnUse" x1="-44658.5703" y1="21906.4102" x2="-44800.3281" y2="22256.9629" gradientTransform="matrix(0.253 0 0 -0.253 11407.7676 5761.9336)"><stop offset="0" style="stop-color:#CB1918"/><stop offset="0.388" style="stop-color:#A2183D"/><stop offset="0.749" style="stop-color:#902869"/><stop offset="1" style="stop-color:#73358A"/></linearGradient><path class="st3" d="M88.86,177.92c1.29,7.7,2.8,15.52,4.43,23.25c0.16,0.74,0.31,1.47,0.47,2.21c3.26-5.27,6.97-10.62,11.17-15.98	c-3.9-4.93-7.93-9.76-12.09-14.49c-1.92-2.17-3.84-4.28-5.78-6.33C87.63,170.35,88.22,174.13,88.86,177.92z"/><path class="st10" d="M226.52,124.23c-4.6,22.34-12.7,43.03-21.32,60.73c1.74,1.75,3.44,3.5,5.09,5.22	c12.28-22.83,21.01-44.67,25.88-66.55C233.35,123.74,230.12,123.91,226.52,124.23z M189.44,131.06c-1.69,10.67-4.12,21.53-7.06,32.3	c5.08,4.58,10.63,9.71,16.09,14.97c6.83-16.3,13.21-34.57,16.97-52.81C207.6,126.65,198.77,128.4,189.44,131.06L189.44,131.06z"/><linearGradient id="SVGID_5_" gradientUnits="userSpaceOnUse" x1="-44367.2383" y1="22104.8242" x2="-44572.9492" y2="21880.125" gradientTransform="matrix(0.253 0 0 -0.253 11407.7676 5761.9336)"><stop offset="0" style="stop-color:#ADD816"/><stop offset="1" style="stop-color:#DBD704"/></linearGradient><path class="st4" d="M116.03,174.52c-4.04,4.28-7.72,8.58-11.09,12.87c14.69,18.56,25.61,36.21,33.52,50.97	c2.87-11.1,5.85-23.39,8.52-35.98c1.73-8.12,3.32-16.35,4.68-24.46c1.91-11.32,3.5-22.63,4.72-33.76	C142.41,151.45,128.52,161.27,116.03,174.52z M205.2,184.96c-0.33,0.68-0.66,1.35-0.99,2.02c-9.75,19.67-20,35.47-26.47,45.44	c-7.47,11.51-17.54,24.99-25.52,35.3c0.29,0.76,0.57,1.47,0.83,2.15c12.36-13.46,30.78-35.15,45.71-59.63	c3.75-6.15,7.25-12.2,10.52-18.19c0.34-0.62,0.68-1.24,1.01-1.87C208.64,188.45,206.94,186.71,205.2,184.96L205.2,184.96z M182.38,163.36l-0.39,1.4c-9.47,34.19-23.89,67.31-35.3,90.13c1.24,2.71,2.37,5.24,3.36,7.56c10.54-12.54,19.22-25.24,28.86-43.26	c5.29-9.92,12.15-23.44,18.7-38.82l0.86-2.04C193.01,173.07,187.46,167.94,182.38,163.36z"/><linearGradient id="SVGID_6_" gradientUnits="userSpaceOnUse" x1="-44522.8008" y1="21673.0918" x2="-44697.9141" y2="21968.3984" gradientTransform="matrix(0.253 0 0 -0.253 11407.7676 5761.9336)"><stop offset="0" style="stop-color:#E1282B"/><stop offset="0.388" style="stop-color:#E3402A"/><stop offset="0.702" style="stop-color:#E76226"/><stop offset="1" style="stop-color:#F19A0A"/></linearGradient><path class="st5" d="M129.77,284.65c7.7-7.98,14.29-15.06,20.28-22.2c-0.99-2.32-2.11-4.84-3.36-7.56	C138.61,271.07,132.02,282.07,129.77,284.65z"/><linearGradient id="SVGID_7_" gradientUnits="userSpaceOnUse" x1="-44511.6133" y1="21679.7246" x2="-44686.7266" y2="21975.0332" gradientTransform="matrix(0.253 0 0 -0.253 11407.7676 5761.9336)"><stop offset="0" style="stop-color:#E1282B"/><stop offset="0.388" style="stop-color:#E3402A"/><stop offset="0.702" style="stop-color:#E76226"/><stop offset="1" style="stop-color:#F19A0A"/></linearGradient><path class="st6" d="M139.23,284.17c0.41-0.4,5.87-5.65,13.83-14.3c-0.27-0.68-0.54-1.39-0.83-2.15	C145.09,276.96,139.65,283.67,139.23,284.17z"/><linearGradient id="SVGID_8_" gradientUnits="userSpaceOnUse" x1="-44541.3906" y1="21662.082" x2="-44716.5" y2="21957.3828" gradientTransform="matrix(0.253 0 0 -0.253 11407.7676 5761.9336)"><stop offset="0" style="stop-color:#E1282B"/><stop offset="0.388" style="stop-color:#E3402A"/><stop offset="0.702" style="stop-color:#E76226"/><stop offset="1" style="stop-color:#F19A0A"/></linearGradient><path class="st7" d="M93.76,203.37c9.1,42.57,21.58,81.61,21.58,81.61h9.84c0,0,6.33-19.83,13.28-46.63	c-7.91-14.76-18.83-32.4-33.52-50.97C100.73,192.75,97.02,198.1,93.76,203.37z"/><linearGradient id="SVGID_9_" gradientUnits="userSpaceOnUse" x1="-44637.9141" y1="21604.8398" x2="-44813.0273" y2="21900.1484" gradientTransform="matrix(0.253 0 0 -0.253 11407.7676 5761.9336)"><stop offset="0" style="stop-color:#E1282B"/><stop offset="0.388" style="stop-color:#E3402A"/><stop offset="0.702" style="stop-color:#E76226"/><stop offset="1" style="stop-color:#F19A0A"/></linearGradient><path class="st8" d="M75.97,243.26c9.95,14.77,20.43,26.52,34.77,41.39c-3.34-3.82-16.28-26.31-29.49-56.69	C79.09,233.27,77.36,238.4,75.97,243.26L75.97,243.26z"/><linearGradient id="SVGID_10_" gradientUnits="userSpaceOnUse" x1="-44670.2852" y1="21585.6484" x2="-44845.3945" y2="21880.9512" gradientTransform="matrix(0.253 0 0 -0.253 11407.7676 5761.9336)"><stop offset="0" style="stop-color:#E1282B"/><stop offset="0.388" style="stop-color:#E3402A"/><stop offset="0.702" style="stop-color:#E76226"/><stop offset="1" style="stop-color:#F19A0A"/></linearGradient><path class="st18" d="M73.36,253.77c15.01,17.97,27.31,29.8,27.94,30.4c-0.66-0.82-14.21-17.48-26.9-34.96	C74.02,250.76,73.67,252.29,73.36,253.77z"/></svg>